<svg width="20" height="18" viewBox="0 0 20 18" fill="none" xmlns="http://www.w3.org/2000/svg">
<path d="M5.234 0C2.582 0 0 1.829 0 5.177C0 8.902 4.345 12.904 9.303 17.717C9.497 17.906 9.749 18 10 18C10.251 18 10.503 17.906 10.697 17.717C15.674 12.886 20 8.903 20 5.177C20 1.824 17.42 0.00900006 14.771 0.00900006C12.935 0.00900006 11.125 0.875 10 2.563C8.87 0.867 7.065 0 5.234 0ZM5.234 1.5C7.224 1.501 8.436 2.853 9.389 4.2C9.529 4.398 9.757 4.516 10 4.517C10.243 4.517 10.471 4.4 10.612 4.203C11.567 2.864 12.802 1.509 14.771 1.509C16.567 1.509 18.5 2.657 18.5 5.177C18.5 7.848 15.619 10.85 10 16.304C4.546 11.019 1.5 7.915 1.5 5.177C1.5 4.052 1.889 3.108 2.624 2.45C3.297 1.846 4.249 1.5 5.234 1.5Z" fill="black"/>
</svg>
